<mxfile host="app.diagrams.net" modified="2021-06-08T07:29:25.956Z" agent="5.0 (Windows NT 10.0; WOW64) AppleWebKit/537.36 (KHTML, like Gecko) Chrome/91.0.4472.77 Safari/537.36" etag="YwGyee0UczBiOyahWpcw" version="14.7.6" type="github" pages="2">
  <diagram id="WW2HLox7fGG9adE7Pf5W" name="Page-1">
    <mxGraphModel dx="868" dy="450" grid="1" gridSize="10" guides="1" tooltips="1" connect="1" arrows="1" fold="1" page="1" pageScale="1" pageWidth="827" pageHeight="1169" background="#ffffff" math="0" shadow="0">
      <root>
        <mxCell id="0" />
        <mxCell id="1" parent="0" />
        <mxCell id="ZLUeRRyWSKjLV2oO9Wiz-11" style="edgeStyle=orthogonalEdgeStyle;rounded=0;orthogonalLoop=1;jettySize=auto;html=1;exitX=0.5;exitY=1;exitDx=0;exitDy=0;entryX=0.5;entryY=0;entryDx=0;entryDy=0;fontSize=20;" parent="1" source="ZLUeRRyWSKjLV2oO9Wiz-2" target="ZLUeRRyWSKjLV2oO9Wiz-3" edge="1">
          <mxGeometry relative="1" as="geometry" />
        </mxCell>
        <mxCell id="ZLUeRRyWSKjLV2oO9Wiz-2" value="工程领导组" style="rounded=0;whiteSpace=wrap;html=1;fontStyle=1;fontSize=20;fillColor=#dae8fc;strokeColor=#6c8ebf;" parent="1" vertex="1">
          <mxGeometry x="380" y="110" width="120" height="60" as="geometry" />
        </mxCell>
        <mxCell id="ZLUeRRyWSKjLV2oO9Wiz-21" style="edgeStyle=orthogonalEdgeStyle;rounded=0;orthogonalLoop=1;jettySize=auto;html=1;exitX=0.5;exitY=1;exitDx=0;exitDy=0;fontSize=20;verticalAlign=bottom;" parent="1" source="ZLUeRRyWSKjLV2oO9Wiz-3" edge="1">
          <mxGeometry relative="1" as="geometry">
            <mxPoint x="250" y="340" as="targetPoint" />
          </mxGeometry>
        </mxCell>
        <mxCell id="ZLUeRRyWSKjLV2oO9Wiz-22" style="edgeStyle=orthogonalEdgeStyle;rounded=0;orthogonalLoop=1;jettySize=auto;html=1;exitX=0.5;exitY=1;exitDx=0;exitDy=0;fontSize=20;verticalAlign=bottom;" parent="1" source="ZLUeRRyWSKjLV2oO9Wiz-3" edge="1">
          <mxGeometry relative="1" as="geometry">
            <mxPoint x="660" y="340" as="targetPoint" />
          </mxGeometry>
        </mxCell>
        <mxCell id="ZLUeRRyWSKjLV2oO9Wiz-23" style="edgeStyle=orthogonalEdgeStyle;rounded=0;orthogonalLoop=1;jettySize=auto;html=1;exitX=0.5;exitY=1;exitDx=0;exitDy=0;entryX=0.5;entryY=0;entryDx=0;entryDy=0;fontSize=20;verticalAlign=bottom;" parent="1" source="ZLUeRRyWSKjLV2oO9Wiz-3" target="ZLUeRRyWSKjLV2oO9Wiz-7" edge="1">
          <mxGeometry relative="1" as="geometry">
            <Array as="points">
              <mxPoint x="440" y="480" />
              <mxPoint x="120" y="480" />
            </Array>
          </mxGeometry>
        </mxCell>
        <mxCell id="ZLUeRRyWSKjLV2oO9Wiz-24" style="edgeStyle=orthogonalEdgeStyle;rounded=0;orthogonalLoop=1;jettySize=auto;html=1;exitX=0.5;exitY=1;exitDx=0;exitDy=0;entryX=0.5;entryY=0;entryDx=0;entryDy=0;fontSize=20;verticalAlign=bottom;" parent="1" source="ZLUeRRyWSKjLV2oO9Wiz-3" target="ZLUeRRyWSKjLV2oO9Wiz-8" edge="1">
          <mxGeometry relative="1" as="geometry">
            <Array as="points">
              <mxPoint x="440" y="480" />
              <mxPoint x="340" y="480" />
            </Array>
          </mxGeometry>
        </mxCell>
        <mxCell id="ZLUeRRyWSKjLV2oO9Wiz-25" style="edgeStyle=orthogonalEdgeStyle;rounded=0;orthogonalLoop=1;jettySize=auto;html=1;exitX=0.5;exitY=1;exitDx=0;exitDy=0;entryX=0.5;entryY=0;entryDx=0;entryDy=0;fontSize=20;verticalAlign=bottom;" parent="1" source="ZLUeRRyWSKjLV2oO9Wiz-3" target="ZLUeRRyWSKjLV2oO9Wiz-9" edge="1">
          <mxGeometry relative="1" as="geometry">
            <Array as="points">
              <mxPoint x="440" y="480" />
              <mxPoint x="580" y="480" />
            </Array>
          </mxGeometry>
        </mxCell>
        <mxCell id="ZLUeRRyWSKjLV2oO9Wiz-27" style="edgeStyle=orthogonalEdgeStyle;rounded=0;orthogonalLoop=1;jettySize=auto;html=1;exitX=0.5;exitY=1;exitDx=0;exitDy=0;entryX=0.5;entryY=0;entryDx=0;entryDy=0;fontSize=20;verticalAlign=bottom;" parent="1" source="ZLUeRRyWSKjLV2oO9Wiz-3" target="ZLUeRRyWSKjLV2oO9Wiz-10" edge="1">
          <mxGeometry relative="1" as="geometry">
            <Array as="points">
              <mxPoint x="440" y="480" />
              <mxPoint x="850" y="480" />
            </Array>
          </mxGeometry>
        </mxCell>
        <mxCell id="ZLUeRRyWSKjLV2oO9Wiz-3" value="项目经理" style="rounded=0;whiteSpace=wrap;html=1;fontStyle=1;fontSize=20;fillColor=#ffe6cc;strokeColor=#d79b00;" parent="1" vertex="1">
          <mxGeometry x="380" y="230" width="120" height="40" as="geometry" />
        </mxCell>
        <mxCell id="ZLUeRRyWSKjLV2oO9Wiz-4" value="项目评审组" style="rounded=0;whiteSpace=wrap;html=1;fontStyle=1;fontSize=20;fillColor=#ffe6cc;strokeColor=#d79b00;" parent="1" vertex="1">
          <mxGeometry x="650" y="170" width="120" height="60" as="geometry" />
        </mxCell>
        <mxCell id="ZLUeRRyWSKjLV2oO9Wiz-5" value="质量控制组" style="rounded=0;whiteSpace=wrap;html=1;fontStyle=1;fontSize=20;fillColor=#dae8fc;strokeColor=#6c8ebf;" parent="1" vertex="1">
          <mxGeometry x="190" y="340" width="120" height="60" as="geometry" />
        </mxCell>
        <mxCell id="ZLUeRRyWSKjLV2oO9Wiz-6" value="过程管理组" style="rounded=0;whiteSpace=wrap;html=1;fontStyle=1;fontSize=20;fillColor=#dae8fc;strokeColor=#6c8ebf;" parent="1" vertex="1">
          <mxGeometry x="600" y="340" width="120" height="60" as="geometry" />
        </mxCell>
        <mxCell id="ZLUeRRyWSKjLV2oO9Wiz-7" value="集成组" style="rounded=0;whiteSpace=wrap;html=1;fontStyle=1;fontSize=20;fillColor=#e1d5e7;strokeColor=#9673a6;" parent="1" vertex="1">
          <mxGeometry x="60" y="510" width="120" height="60" as="geometry" />
        </mxCell>
        <mxCell id="ZLUeRRyWSKjLV2oO9Wiz-8" value="开发组" style="rounded=0;whiteSpace=wrap;html=1;fontStyle=1;fontSize=20;fillColor=#e1d5e7;strokeColor=#9673a6;" parent="1" vertex="1">
          <mxGeometry x="280" y="510" width="120" height="60" as="geometry" />
        </mxCell>
        <mxCell id="ZLUeRRyWSKjLV2oO9Wiz-9" value="测试组" style="rounded=0;whiteSpace=wrap;html=1;fontStyle=1;fontSize=20;fillColor=#e1d5e7;strokeColor=#9673a6;" parent="1" vertex="1">
          <mxGeometry x="520" y="510" width="120" height="60" as="geometry" />
        </mxCell>
        <mxCell id="ZLUeRRyWSKjLV2oO9Wiz-10" value="技术支持组" style="rounded=0;whiteSpace=wrap;html=1;fontStyle=1;fontSize=20;fillColor=#e1d5e7;strokeColor=#9673a6;" parent="1" vertex="1">
          <mxGeometry x="790" y="510" width="120" height="60" as="geometry" />
        </mxCell>
        <mxCell id="ZLUeRRyWSKjLV2oO9Wiz-15" value="" style="line;strokeWidth=1;html=1;perimeter=backbonePerimeter;points=[];outlineConnect=0;fontSize=20;" parent="1" vertex="1">
          <mxGeometry x="440" y="190" width="210" height="10" as="geometry" />
        </mxCell>
      </root>
    </mxGraphModel>
  </diagram>
  <diagram id="ExdvxMZo9IBlYdgXx6_r" name="Page-2">
    <mxGraphModel dx="868" dy="450" grid="1" gridSize="10" guides="1" tooltips="1" connect="1" arrows="1" fold="1" page="1" pageScale="1" pageWidth="827" pageHeight="1169" math="0" shadow="0">
      <root>
        <mxCell id="tOPQ5UC7UITf5kBM3EXZ-0" />
        <mxCell id="tOPQ5UC7UITf5kBM3EXZ-1" parent="tOPQ5UC7UITf5kBM3EXZ-0" />
      </root>
    </mxGraphModel>
  </diagram>
</mxfile>
